<mxfile host="app.diagrams.net" modified="2023-06-03T09:30:24.393Z" agent="Mozilla/5.0 (X11; Linux x86_64; rv:107.0) Gecko/20100101 Firefox/107.0" etag="_Hyn0cl1V16QQkT98bxy" version="21.3.2" type="device">
  <diagram name="Page-1" id="gFbvtrG6Tz3VOzgD1uRf">
    <mxGraphModel dx="1317" dy="583" grid="1" gridSize="10" guides="1" tooltips="1" connect="1" arrows="1" fold="1" page="1" pageScale="1" pageWidth="850" pageHeight="1100" math="0" shadow="0">
      <root>
        <mxCell id="0" />
        <mxCell id="1" parent="0" />
        <mxCell id="m6OPP8jlobxMI2y-k1QJ-1" value="Н_ЛЮДИ" style="text;html=1;strokeColor=none;fillColor=none;align=center;verticalAlign=middle;whiteSpace=wrap;rounded=0;" parent="1" vertex="1">
          <mxGeometry x="9" y="501" width="60" height="31" as="geometry" />
        </mxCell>
        <mxCell id="m6OPP8jlobxMI2y-k1QJ-2" value="Н_ОБУЧЕНИЯ" style="text;html=1;strokeColor=none;fillColor=none;align=center;verticalAlign=middle;whiteSpace=wrap;rounded=0;" parent="1" vertex="1">
          <mxGeometry x="179" y="501" width="60" height="31" as="geometry" />
        </mxCell>
        <mxCell id="m6OPP8jlobxMI2y-k1QJ-4" value="" style="endArrow=classic;html=1;rounded=0;exitX=0.5;exitY=0;exitDx=0;exitDy=0;entryX=0.5;entryY=1;entryDx=0;entryDy=0;" parent="1" source="m6OPP8jlobxMI2y-k1QJ-1" target="m6OPP8jlobxMI2y-k1QJ-7" edge="1">
          <mxGeometry width="50" height="50" relative="1" as="geometry">
            <mxPoint x="239" y="401" as="sourcePoint" />
            <mxPoint x="127" y="462.0000000000001" as="targetPoint" />
          </mxGeometry>
        </mxCell>
        <mxCell id="m6OPP8jlobxMI2y-k1QJ-6" value="" style="endArrow=classic;html=1;rounded=0;exitX=0.5;exitY=0;exitDx=0;exitDy=0;entryX=0.5;entryY=1;entryDx=0;entryDy=0;" parent="1" source="m6OPP8jlobxMI2y-k1QJ-2" target="m6OPP8jlobxMI2y-k1QJ-7" edge="1">
          <mxGeometry width="50" height="50" relative="1" as="geometry">
            <mxPoint x="189" y="401" as="sourcePoint" />
            <mxPoint x="127" y="462.0000000000001" as="targetPoint" />
          </mxGeometry>
        </mxCell>
        <mxCell id="m6OPP8jlobxMI2y-k1QJ-7" value="&lt;font style=&quot;font-size: 18px;&quot;&gt;⋈&lt;/font&gt;Н_ОБУЧЕНИЯ ON Н_ОБУЧЕНИЯ.ЧЛВК_ИД = Н_ЛЮДИ.ИД" style="text;html=1;strokeColor=none;fillColor=none;align=center;verticalAlign=middle;whiteSpace=wrap;rounded=0;" parent="1" vertex="1">
          <mxGeometry x="9" y="398" width="230" height="60" as="geometry" />
        </mxCell>
        <mxCell id="m6OPP8jlobxMI2y-k1QJ-9" value="&lt;font style=&quot;font-size: 18px;&quot;&gt;σ&lt;/font&gt;Н_ЛЮДИ.ОТЧЕСТВО &amp;gt; &#39;Александрович&#39;" style="text;html=1;strokeColor=none;fillColor=none;align=center;verticalAlign=middle;whiteSpace=wrap;rounded=0;" parent="1" vertex="1">
          <mxGeometry x="101.75" y="221" width="241.5" height="31" as="geometry" />
        </mxCell>
        <mxCell id="m6OPP8jlobxMI2y-k1QJ-10" value="&lt;font style=&quot;font-size: 18px;&quot;&gt;σ&lt;/font&gt;Н_ОБУЧЕНИЯ.НЗК &amp;lt; &#39;999080&#39;" style="text;html=1;strokeColor=none;fillColor=none;align=center;verticalAlign=middle;whiteSpace=wrap;rounded=0;" parent="1" vertex="1">
          <mxGeometry x="131.75" y="152" width="181.5" height="31" as="geometry" />
        </mxCell>
        <mxCell id="m6OPP8jlobxMI2y-k1QJ-11" value="" style="endArrow=classic;html=1;rounded=0;entryX=0.5;entryY=1;entryDx=0;entryDy=0;exitX=0.5;exitY=0;exitDx=0;exitDy=0;" parent="1" source="m6OPP8jlobxMI2y-k1QJ-7" target="m6OPP8jlobxMI2y-k1QJ-37" edge="1">
          <mxGeometry width="50" height="50" relative="1" as="geometry">
            <mxPoint x="99" y="378" as="sourcePoint" />
            <mxPoint x="229" y="322.0000000000001" as="targetPoint" />
          </mxGeometry>
        </mxCell>
        <mxCell id="m6OPP8jlobxMI2y-k1QJ-12" value="" style="endArrow=classic;html=1;rounded=0;exitX=0.5;exitY=0;exitDx=0;exitDy=0;entryX=0.5;entryY=1;entryDx=0;entryDy=0;" parent="1" source="m6OPP8jlobxMI2y-k1QJ-37" target="m6OPP8jlobxMI2y-k1QJ-9" edge="1">
          <mxGeometry width="50" height="50" relative="1" as="geometry">
            <mxPoint x="229" y="291" as="sourcePoint" />
            <mxPoint x="164" y="331" as="targetPoint" />
          </mxGeometry>
        </mxCell>
        <mxCell id="m6OPP8jlobxMI2y-k1QJ-13" value="" style="endArrow=classic;html=1;rounded=0;exitX=0.5;exitY=0;exitDx=0;exitDy=0;entryX=0.5;entryY=1;entryDx=0;entryDy=0;" parent="1" source="m6OPP8jlobxMI2y-k1QJ-9" target="m6OPP8jlobxMI2y-k1QJ-10" edge="1">
          <mxGeometry width="50" height="50" relative="1" as="geometry">
            <mxPoint x="164" y="301" as="sourcePoint" />
            <mxPoint x="164" y="261" as="targetPoint" />
          </mxGeometry>
        </mxCell>
        <mxCell id="m6OPP8jlobxMI2y-k1QJ-14" value="Результат" style="text;html=1;strokeColor=none;fillColor=none;align=center;verticalAlign=middle;whiteSpace=wrap;rounded=0;" parent="1" vertex="1">
          <mxGeometry x="192.5" y="13" width="60" height="31" as="geometry" />
        </mxCell>
        <mxCell id="m6OPP8jlobxMI2y-k1QJ-15" value="" style="endArrow=classic;html=1;rounded=0;exitX=0.5;exitY=0;exitDx=0;exitDy=0;entryX=0.5;entryY=1;entryDx=0;entryDy=0;" parent="1" source="m6OPP8jlobxMI2y-k1QJ-10" target="lh5B-mBKNamE_A2fynEn-2" edge="1">
          <mxGeometry width="50" height="50" relative="1" as="geometry">
            <mxPoint x="154" y="152" as="sourcePoint" />
            <mxPoint x="222.5" y="114" as="targetPoint" />
          </mxGeometry>
        </mxCell>
        <mxCell id="m6OPP8jlobxMI2y-k1QJ-35" value="Н_УЧЕНИКИ" style="text;html=1;strokeColor=none;fillColor=none;align=center;verticalAlign=middle;whiteSpace=wrap;rounded=0;" parent="1" vertex="1">
          <mxGeometry x="277.5" y="412.5" width="60" height="31" as="geometry" />
        </mxCell>
        <mxCell id="m6OPP8jlobxMI2y-k1QJ-37" value="&lt;font style=&quot;font-size: 18px;&quot;&gt;⋈&lt;/font&gt;Н_УЧЕНИКИ ON &lt;font style=&quot;font-size: 18px;&quot;&gt;&lt;/font&gt;Н_УЧЕНИКИ.ЧЛВК_ИД = Н_ЛЮДИ.ИД" style="text;html=1;strokeColor=none;fillColor=none;align=center;verticalAlign=middle;whiteSpace=wrap;rounded=0;" parent="1" vertex="1">
          <mxGeometry x="107.5" y="298" width="230" height="60" as="geometry" />
        </mxCell>
        <mxCell id="m6OPP8jlobxMI2y-k1QJ-38" value="" style="endArrow=classic;html=1;rounded=0;entryX=0.5;entryY=1;entryDx=0;entryDy=0;exitX=0.5;exitY=0;exitDx=0;exitDy=0;" parent="1" source="m6OPP8jlobxMI2y-k1QJ-35" target="m6OPP8jlobxMI2y-k1QJ-37" edge="1">
          <mxGeometry width="50" height="50" relative="1" as="geometry">
            <mxPoint x="329" y="468" as="sourcePoint" />
            <mxPoint x="619" y="408" as="targetPoint" />
          </mxGeometry>
        </mxCell>
        <mxCell id="m6OPP8jlobxMI2y-k1QJ-39" value="Н_ЛЮДИ" style="text;html=1;strokeColor=none;fillColor=none;align=center;verticalAlign=middle;whiteSpace=wrap;rounded=0;" parent="1" vertex="1">
          <mxGeometry x="450.75" y="501" width="60" height="31" as="geometry" />
        </mxCell>
        <mxCell id="m6OPP8jlobxMI2y-k1QJ-40" value="Н_ОБУЧЕНИЯ" style="text;html=1;strokeColor=none;fillColor=none;align=center;verticalAlign=middle;whiteSpace=wrap;rounded=0;" parent="1" vertex="1">
          <mxGeometry x="680.75" y="501" width="60" height="31" as="geometry" />
        </mxCell>
        <mxCell id="m6OPP8jlobxMI2y-k1QJ-41" value="" style="endArrow=classic;html=1;rounded=0;exitX=0.5;exitY=0;exitDx=0;exitDy=0;entryX=0.5;entryY=1;entryDx=0;entryDy=0;" parent="1" source="m6OPP8jlobxMI2y-k1QJ-39" target="m6OPP8jlobxMI2y-k1QJ-44" edge="1">
          <mxGeometry width="50" height="50" relative="1" as="geometry">
            <mxPoint x="590" y="401" as="sourcePoint" />
            <mxPoint x="420" y="400" as="targetPoint" />
          </mxGeometry>
        </mxCell>
        <mxCell id="m6OPP8jlobxMI2y-k1QJ-42" value="" style="endArrow=classic;html=1;rounded=0;exitX=0.5;exitY=0;exitDx=0;exitDy=0;entryX=0.5;entryY=1;entryDx=0;entryDy=0;" parent="1" source="m6OPP8jlobxMI2y-k1QJ-40" target="m6OPP8jlobxMI2y-k1QJ-45" edge="1">
          <mxGeometry width="50" height="50" relative="1" as="geometry">
            <mxPoint x="540" y="401" as="sourcePoint" />
            <mxPoint x="650" y="410" as="targetPoint" />
          </mxGeometry>
        </mxCell>
        <mxCell id="m6OPP8jlobxMI2y-k1QJ-43" value="&lt;font style=&quot;font-size: 18px;&quot;&gt;⋈&lt;/font&gt;Н_ОБУЧЕНИЯ ON Н_ОБУЧЕНИЯ.ЧЛВК_ИД = Н_ЛЮДИ.ИД" style="text;html=1;strokeColor=none;fillColor=none;align=center;verticalAlign=middle;whiteSpace=wrap;rounded=0;" parent="1" vertex="1">
          <mxGeometry x="450.75" y="330" width="230" height="39" as="geometry" />
        </mxCell>
        <mxCell id="m6OPP8jlobxMI2y-k1QJ-44" value="&lt;font style=&quot;font-size: 18px;&quot;&gt;σ&lt;/font&gt;Н_ЛЮДИ.ОТЧЕСТВО &amp;gt; &#39;Александрович&#39;" style="text;html=1;strokeColor=none;fillColor=none;align=center;verticalAlign=middle;whiteSpace=wrap;rounded=0;" parent="1" vertex="1">
          <mxGeometry x="360" y="427" width="241.5" height="31" as="geometry" />
        </mxCell>
        <mxCell id="m6OPP8jlobxMI2y-k1QJ-45" value="&lt;font style=&quot;font-size: 18px;&quot;&gt;σ&lt;/font&gt;Н_ОБУЧЕНИЯ.НЗК &amp;lt; &#39;999080&#39;" style="text;html=1;strokeColor=none;fillColor=none;align=center;verticalAlign=middle;whiteSpace=wrap;rounded=0;" parent="1" vertex="1">
          <mxGeometry x="620" y="427" width="181.5" height="31" as="geometry" />
        </mxCell>
        <mxCell id="m6OPP8jlobxMI2y-k1QJ-46" value="" style="endArrow=classic;html=1;rounded=0;entryX=0.5;entryY=1;entryDx=0;entryDy=0;exitX=0.5;exitY=0;exitDx=0;exitDy=0;" parent="1" source="m6OPP8jlobxMI2y-k1QJ-43" target="m6OPP8jlobxMI2y-k1QJ-52" edge="1">
          <mxGeometry width="50" height="50" relative="1" as="geometry">
            <mxPoint x="450" y="378" as="sourcePoint" />
            <mxPoint x="580" y="322.0000000000001" as="targetPoint" />
          </mxGeometry>
        </mxCell>
        <mxCell id="m6OPP8jlobxMI2y-k1QJ-49" value="Результат" style="text;html=1;strokeColor=none;fillColor=none;align=center;verticalAlign=middle;whiteSpace=wrap;rounded=0;" parent="1" vertex="1">
          <mxGeometry x="595.75" y="60" width="60" height="31" as="geometry" />
        </mxCell>
        <mxCell id="m6OPP8jlobxMI2y-k1QJ-51" value="Н_УЧЕНИКИ" style="text;html=1;strokeColor=none;fillColor=none;align=center;verticalAlign=middle;whiteSpace=wrap;rounded=0;" parent="1" vertex="1">
          <mxGeometry x="760" y="330" width="60" height="31" as="geometry" />
        </mxCell>
        <mxCell id="m6OPP8jlobxMI2y-k1QJ-52" value="&lt;font style=&quot;font-size: 18px;&quot;&gt;⋈&lt;/font&gt;Н_УЧЕНИКИ ON &lt;font style=&quot;font-size: 18px;&quot;&gt;&lt;/font&gt;Н_УЧЕНИКИ.ЧЛВК_ИД = Н_ЛЮДИ.ИД" style="text;html=1;strokeColor=none;fillColor=none;align=center;verticalAlign=middle;whiteSpace=wrap;rounded=0;" parent="1" vertex="1">
          <mxGeometry x="510.75" y="206.5" width="230" height="60" as="geometry" />
        </mxCell>
        <mxCell id="m6OPP8jlobxMI2y-k1QJ-53" value="" style="endArrow=classic;html=1;rounded=0;entryX=0.5;entryY=1;entryDx=0;entryDy=0;exitX=0.5;exitY=0;exitDx=0;exitDy=0;" parent="1" source="m6OPP8jlobxMI2y-k1QJ-51" target="m6OPP8jlobxMI2y-k1QJ-52" edge="1">
          <mxGeometry width="50" height="50" relative="1" as="geometry">
            <mxPoint x="680" y="468" as="sourcePoint" />
            <mxPoint x="970" y="408" as="targetPoint" />
          </mxGeometry>
        </mxCell>
        <mxCell id="m6OPP8jlobxMI2y-k1QJ-55" value="" style="endArrow=classic;html=1;rounded=0;exitX=0.5;exitY=0;exitDx=0;exitDy=0;entryX=0.5;entryY=1;entryDx=0;entryDy=0;" parent="1" source="m6OPP8jlobxMI2y-k1QJ-45" target="m6OPP8jlobxMI2y-k1QJ-43" edge="1">
          <mxGeometry width="50" height="50" relative="1" as="geometry">
            <mxPoint x="609.31" y="510" as="sourcePoint" />
            <mxPoint x="609.31" y="398" as="targetPoint" />
          </mxGeometry>
        </mxCell>
        <mxCell id="m6OPP8jlobxMI2y-k1QJ-56" value="" style="endArrow=classic;html=1;rounded=0;exitX=0.5;exitY=0;exitDx=0;exitDy=0;entryX=0.5;entryY=1;entryDx=0;entryDy=0;" parent="1" source="m6OPP8jlobxMI2y-k1QJ-44" target="m6OPP8jlobxMI2y-k1QJ-43" edge="1">
          <mxGeometry width="50" height="50" relative="1" as="geometry">
            <mxPoint x="721" y="368" as="sourcePoint" />
            <mxPoint x="460" y="330" as="targetPoint" />
          </mxGeometry>
        </mxCell>
        <mxCell id="m6OPP8jlobxMI2y-k1QJ-57" value="" style="endArrow=classic;html=1;rounded=0;entryX=0.5;entryY=1;entryDx=0;entryDy=0;exitX=0.5;exitY=0;exitDx=0;exitDy=0;" parent="1" source="m6OPP8jlobxMI2y-k1QJ-52" target="lh5B-mBKNamE_A2fynEn-1" edge="1">
          <mxGeometry width="50" height="50" relative="1" as="geometry">
            <mxPoint x="650" y="240" as="sourcePoint" />
            <mxPoint x="625.75" y="161" as="targetPoint" />
          </mxGeometry>
        </mxCell>
        <mxCell id="lh5B-mBKNamE_A2fynEn-1" value="π_(Н_ЛЮДИ.ИМЯ, Н_ОБУЧЕНИЯ.НЗК, Н_УЧЕНИКИ.ГРУППА)" style="text;html=1;strokeColor=none;fillColor=none;align=center;verticalAlign=middle;whiteSpace=wrap;rounded=0;" vertex="1" parent="1">
          <mxGeometry x="485.37" y="121" width="280.75" height="31" as="geometry" />
        </mxCell>
        <mxCell id="lh5B-mBKNamE_A2fynEn-2" value="π_(Н_ЛЮДИ.ИМЯ, Н_ОБУЧЕНИЯ.НЗК, Н_УЧЕНИКИ.ГРУППА)" style="text;html=1;strokeColor=none;fillColor=none;align=center;verticalAlign=middle;whiteSpace=wrap;rounded=0;" vertex="1" parent="1">
          <mxGeometry x="82.13" y="80" width="280.75" height="31" as="geometry" />
        </mxCell>
        <mxCell id="lh5B-mBKNamE_A2fynEn-4" value="" style="endArrow=classic;html=1;rounded=0;exitX=0.5;exitY=0;exitDx=0;exitDy=0;entryX=0.5;entryY=1;entryDx=0;entryDy=0;" edge="1" parent="1" source="lh5B-mBKNamE_A2fynEn-2" target="m6OPP8jlobxMI2y-k1QJ-14">
          <mxGeometry width="50" height="50" relative="1" as="geometry">
            <mxPoint x="233" y="162" as="sourcePoint" />
            <mxPoint x="233" y="121" as="targetPoint" />
          </mxGeometry>
        </mxCell>
        <mxCell id="lh5B-mBKNamE_A2fynEn-5" value="" style="endArrow=classic;html=1;rounded=0;entryX=0.5;entryY=1;entryDx=0;entryDy=0;exitX=0.5;exitY=0;exitDx=0;exitDy=0;" edge="1" parent="1" source="lh5B-mBKNamE_A2fynEn-1" target="m6OPP8jlobxMI2y-k1QJ-49">
          <mxGeometry width="50" height="50" relative="1" as="geometry">
            <mxPoint x="636" y="217" as="sourcePoint" />
            <mxPoint x="610" y="152" as="targetPoint" />
          </mxGeometry>
        </mxCell>
      </root>
    </mxGraphModel>
  </diagram>
</mxfile>
